<svg width="2106" height="2106" viewBox="0 0 2106 2106" fill="none" xmlns="http://www.w3.org/2000/svg">
<path d="M686.688 2018.18C700.574 2042.05 731.18 2050.14 755.049 2036.26C778.918 2022.37 787.011 1991.77 773.125 1967.9L686.688 2018.18ZM0.326259 838.364L686.688 2018.18L773.125 1967.9L86.7636 788.079L0.326259 838.364Z" fill="white"/>
<path d="M690.989 1974.19C676.978 1997.98 684.911 2028.63 708.707 2042.64C732.502 2056.65 763.151 2048.72 777.162 2024.92L690.989 1974.19ZM777.162 2024.92L1166.09 1364.37L1079.91 1313.63L690.989 1974.19L777.162 2024.92Z" fill="white"/>
<mask id="path-3-inside-1_2584_356" fill="white">
<path d="M2066 763C2088.09 763 2106.13 780.926 2104.79 802.977C2098.41 908.4 2066.84 1011.15 2012.34 1103.05C1950.98 1206.53 1862.68 1292.65 1756.24 1352.81C1649.8 1412.98 1528.94 1445.1 1405.69 1445.98C1296.27 1446.76 1188.35 1422.89 1090.4 1376.48C1070.04 1366.84 1063.13 1341.75 1074.47 1322.29L1388.93 782.855C1396.09 770.561 1409.25 763 1423.48 763H2066Z"/>
</mask>
<path d="M2066 763C2088.09 763 2106.13 780.926 2104.79 802.977C2098.41 908.4 2066.84 1011.15 2012.34 1103.05C1950.98 1206.53 1862.68 1292.65 1756.24 1352.81C1649.8 1412.98 1528.94 1445.1 1405.69 1445.98C1296.27 1446.76 1188.35 1422.89 1090.4 1376.48C1070.04 1366.84 1063.13 1341.75 1074.47 1322.29L1388.93 782.855C1396.09 770.561 1409.25 763 1423.48 763H2066Z" stroke="white" stroke-width="200" mask="url(#path-3-inside-1_2584_356)"/>
<path d="M912.265 1135.12C815.956 1022.05 763.328 880.412 763.002 734.368C762.675 588.323 814.668 446.466 910.466 333.004C1006.3 219.506 1140.08 141.419 1289.18 112.441C1438.3 83.4617 1593.13 105.476 1727.19 174.587" stroke="white" stroke-width="100"/>
</svg>
